<?xml version="1.0" encoding="UTF-8"?>
<svg version="1.1" xmlns="http://www.w3.org/2000/svg" width="2160" height="2160">
<path d="M0 0 C3.82329084 0.00008076 7.64646056 -0.00679434 11.46972656 -0.02050781 C42.64691145 -0.13046295 73.74938003 0.50134504 104.77246094 3.87280273 C105.5393222 3.95389282 106.30618347 4.03498291 107.09628296 4.11853027 C193.55667058 13.31411687 278.33269941 32.20854066 396.14746094 79.18530273 C398.53528745 80.23001782 400.92331117 81.27428227 403.31152344 82.31811523 C414.74164979 87.33389327 426.07147913 92.45592896 437.16601562 98.17700195 C439.34927421 99.28799973 441.54718986 100.36550893 443.74902344 101.43920898 C455.81389084 107.34170594 467.49086014 113.80188103 479.14257812 120.4777832 C482.16603852 122.19585941 485.20405553 123.88457791 488.24902344 125.56420898 C517.11899032 141.5020532 545.28635484 158.98765268 572.30566406 177.90405273 C574.19705299 179.21980155 576.09983875 180.51729361 578.00683594 181.81030273 C588.59171527 188.99641578 598.89052381 196.54025816 609.14746094 204.18530273 C609.84371582 204.70237793 610.5399707 205.21945312 611.25732422 205.75219727 C625.43413062 216.28109024 639.43141606 227.06163748 653.14746094 238.18530273 C654.00082031 238.87624023 654.85417969 239.56717773 655.73339844 240.27905273 C662.37191483 245.68116922 668.92274122 251.18174316 675.43847656 256.73071289 C676.58984952 257.71069576 677.74221448 258.68951418 678.89550781 259.66723633 C686.22763944 265.8833446 693.42648312 272.20923776 700.48339844 278.73608398 C702.67836871 280.75404053 704.89412304 282.73333719 707.14746094 284.68530273 C715.18385692 291.66911463 722.98530774 298.86821464 730.40527344 306.50561523 C732.05499508 308.26359079 732.05499508 308.26359079 734.14746094 309.18530273 C734.14746094 309.84530273 734.14746094 310.50530273 734.14746094 311.18530273 C734.73601364 311.44886566 735.32456635 311.71242859 735.93095398 311.98397827 C738.24303822 313.23710466 739.75917519 314.54949836 741.61157227 316.40649414 C742.26938187 317.06122711 742.92719147 317.71596008 743.60493469 318.39053345 C744.65659065 319.45296768 744.65659065 319.45296768 745.72949219 320.53686523 C746.82809822 321.6361586 746.82809822 321.6361586 747.94889832 322.75765991 C749.49865941 324.31044102 751.04599039 325.86565076 752.59106445 327.4230957 C754.93558761 329.78574102 757.28787842 332.14042008 759.64160156 334.49389648 C761.15053511 336.00775107 762.65901309 337.5220599 764.16699219 339.03686523 C764.86202347 339.73300934 765.55705475 340.42915344 766.27314758 341.14639282 C770.20287336 345.11369143 773.96403855 349.17588707 777.59770203 353.41659546 C779.98406181 356.14009773 782.55619579 358.65880849 785.14746094 361.18530273 C788.99016725 364.98128382 792.68169737 368.82199032 796.18261719 372.93920898 C798.33763194 375.40269503 800.56613969 377.78535039 802.80664062 380.17089844 C808.09192375 385.79835626 813.14268143 391.51114478 817.97167969 397.54077148 C820.27777794 400.34369521 822.68897624 403.01533549 825.14746094 405.68530273 C829.20729739 410.10170418 833.04069915 414.64693795 836.80761719 419.31420898 C838.88509555 421.86336857 840.99793466 424.37335709 843.1340332 426.87304688 C848.87154894 433.58716104 854.36641892 440.46424849 859.78564453 447.43676758 C861.55527767 449.70892831 863.33711874 451.97133469 865.11962891 454.23339844 C866.96296854 456.57400328 868.80107529 458.91869529 870.63916016 461.26342773 C871.68636778 462.5977784 872.73497038 463.93103497 873.78466797 465.26342773 C881.99832846 475.69287731 889.91754691 486.2871073 897.63769531 497.08618164 C899.48793228 499.65868122 901.36704355 502.20883831 903.25146484 504.75634766 C934.07803139 546.45856299 961.93762652 590.47066296 988.14746094 635.18530273 C988.79005859 636.28068359 989.43265625 637.37606445 990.09472656 638.50463867 C998.30700788 652.53430211 1006.20729497 666.70158659 1013.85839844 681.04467773 C1016.85768848 686.66462155 1019.93068249 692.24088472 1023.02246094 697.81030273 C1027.18850371 705.34701911 1031.12084007 712.96580843 1034.91601562 720.69458008 C1036.70331896 724.30958179 1038.51793069 727.91076394 1040.33076477 731.51301575 C1042.47166079 735.76967998 1044.59590697 740.03437515 1046.71386719 744.30249023 C1048.78566478 748.47593676 1050.89002639 752.62709554 1053.04980469 756.75561523 C1057.51876095 765.44171975 1061.36861576 773.15518223 1059.14746094 783.18530273 C1056.9029959 789.69522296 1053.2009797 793.96217641 1047.14746094 797.18530273 C1040.92206571 800.02733099 1034.34139584 800.16028403 1027.89746094 797.93530273 C1022.04091943 795.42865676 1018.35247072 791.40558109 1014.29199219 786.64624023 C1011.6864755 783.65630305 1008.98031321 780.76977216 1006.27246094 777.87280273 C1002.60537526 773.93529636 999.07565962 769.95027733 995.70996094 765.74780273 C991.12600031 760.03663868 986.15449655 754.73691191 981.14746094 749.40014648 C978.3422884 746.4075594 975.63132048 743.34569713 972.95214844 740.23999023 C970.5596355 737.51604694 968.10304186 734.85220944 965.64746094 732.18530273 C959.03015148 724.98096481 959.03015148 724.98096481 956.08496094 721.68530273 C955.55773438 721.09749023 955.03050781 720.50967773 954.48730469 719.90405273 C953.07277793 718.08949946 952.1040949 716.2725041 951.14746094 714.18530273 C950.48746094 714.18530273 949.82746094 714.18530273 949.14746094 714.18530273 C947.52636719 712.54077148 947.52636719 712.54077148 945.70996094 710.37280273 C943.17406762 707.36067008 943.17406762 707.36067008 940.42480469 704.54858398 C939.14746094 703.18530273 939.14746094 703.18530273 939.14746094 701.18530273 C938.48746094 701.18530273 937.82746094 701.18530273 937.14746094 701.18530273 C935.73730469 699.75170898 935.73730469 699.75170898 934.08496094 697.74780273 C931.395711 694.57773056 928.61232717 691.59948749 925.64746094 688.68530273 C922.92304554 685.99751813 920.31485782 683.28713411 917.83496094 680.37280273 C914.16334771 676.06605262 910.13358086 672.14220843 906.05834961 668.22119141 C904.71843782 666.91202819 903.42827152 665.55234194 902.14746094 664.18530273 C902.14746094 663.52530273 902.14746094 662.86530273 902.14746094 662.18530273 C901.54962296 661.92502792 900.95178497 661.66475311 900.33583069 661.39659119 C897.98270497 660.09410836 896.82029798 658.88110797 895.13354492 656.8046875 C890.19891927 650.98171963 884.7684003 645.66204572 879.37011719 640.27514648 C878.23328848 639.1376424 877.09660811 637.99999006 875.96006775 636.86219788 C873.58901173 634.48967587 871.21617821 632.11895033 868.84204102 629.74951172 C865.81847632 626.73164361 862.79942461 623.70930698 859.78170109 620.68559933 C857.4387626 618.33902541 855.09342054 615.99486539 852.74737358 613.65139961 C851.6340161 612.53870317 850.52138413 611.42528023 849.40953255 610.31107903 C844.00451727 604.89714675 838.59888022 599.53438934 832.76179504 594.57945251 C830.29459649 592.44876327 828.04852751 590.14380947 825.77246094 587.81030273 C822.7630627 584.58295472 822.7630627 584.58295472 819.14746094 582.18530273 C819.14746094 581.52530273 819.14746094 580.86530273 819.14746094 580.18530273 C818.31988281 579.85079102 818.31988281 579.85079102 817.47558594 579.50952148 C814.41689334 577.76976177 812.34007974 575.52765792 809.89746094 572.99780273 C804.94579065 567.93447795 799.84693078 563.1559691 794.32324219 558.72045898 C792.90204847 557.57754096 791.51997044 556.38624855 790.14746094 555.18530273 C790.14746094 554.52530273 790.14746094 553.86530273 790.14746094 553.18530273 C789.6125 552.9700293 789.07753906 552.75475586 788.52636719 552.53295898 C785.27808428 550.69279871 782.76328076 548.18686451 780.08496094 545.62280273 C776.02706465 541.80229709 771.93546087 538.11332012 767.58496094 534.62280273 C763.63249594 531.45050499 759.85638288 528.13661108 756.14746094 524.68530273 C751.56818518 520.42996997 746.85459795 516.41207351 741.98339844 512.48999023 C738.89158593 509.97736023 735.86305567 507.39886465 732.83496094 504.81030273 C727.75843927 500.48353263 722.5667973 496.33047395 717.30175781 492.23608398 C713.57999716 489.33451201 709.93917777 486.3581309 706.33496094 483.31030273 C698.81147839 476.99932332 690.98299869 471.10106855 683.14746094 465.18530273 C682.34179688 464.57460937 681.53613281 463.96391602 680.70605469 463.3347168 C671.38000742 456.26720758 662.0077513 449.28856483 652.4140625 442.58764648 C648.95064147 440.16823858 645.50773899 437.72933973 642.10839844 435.22045898 C623.23006534 421.3068391 603.45498007 408.50952421 583.32373047 396.48754883 C580.93534948 395.05837851 578.55484414 393.61660003 576.17480469 392.17358398 C566.70859369 386.44491129 557.20146583 380.81016874 547.50390625 375.48120117 C545.79288001 374.5402431 544.08419835 373.59501772 542.37695312 372.6472168 C525.6394898 363.37148898 508.62370878 354.97641406 491.14746094 347.18530273 C489.41061035 346.40775635 489.41061035 346.40775635 487.63867188 345.61450195 C470.43027264 337.95164932 453.00634411 331.17737416 435.14746094 325.18530273 C434.16116699 324.85208008 433.17487305 324.51885742 432.15869141 324.17553711 C417.22690295 318.64544216 417.22690295 318.64544216 401.88964844 320.04077148 C396.22068344 323.10535957 392.40346209 328.03083738 390.53808594 334.20092773 C389.28815081 340.55059818 390.18924058 345.171856 392.68652344 351.00952148 C396.19429565 356.23366352 401.40198638 359.04760702 406.96777344 361.68139648 C407.61564819 361.99131531 408.26352295 362.30123413 408.93103027 362.62054443 C410.31971713 363.28386866 411.71021536 363.94341199 413.10235596 364.59945679 C416.06619508 365.99710012 419.01992076 367.41554092 421.97445679 368.8327179 C423.48933411 369.5591358 425.00465665 370.28462595 426.52041626 371.00920105 C446.12295221 380.38083383 465.38109141 390.2236239 484.14746094 401.18530273 C485.20787598 401.80131348 486.26829102 402.41732422 487.36083984 403.05200195 C508.86322011 415.56333572 530.13267739 428.56128877 550.42919922 442.96801758 C551.58487284 443.78674288 552.74480551 444.59948592 553.90869141 445.40649414 C561.02371743 450.3467613 565.74559059 453.98047102 568.89746094 462.12280273 C569.81322854 469.67788548 568.99783578 475.52578118 565.14746094 482.18530273 C560.57244407 487.70010862 555.18076273 490.9229696 548.14746094 492.18530273 C539.1941852 492.36503807 530.15922085 489.39781338 521.53598022 487.29333496 C471.51093419 475.1554043 420.5212921 467.47557394 369.14746094 464.18530273 C368.45102478 464.13798004 367.75458862 464.09065735 367.03704834 464.04190063 C351.38060595 463.00041164 335.70988233 462.99780241 320.02636719 463 C317.04876538 463.00008055 314.07131977 462.9932357 311.09375 462.97949219 C281.94532649 462.8474346 252.98230125 464.00806053 224.02246094 467.49780273 C222.64509262 467.65978653 222.64509262 467.65978653 221.23989868 467.82504272 C133.79214608 478.1189053 47.75647542 501.70852529 -32.85253906 537.18530273 C-33.97192871 537.67434082 -35.09131836 538.16337891 -36.24462891 538.66723633 C-65.36063113 551.41286089 -94.30002417 565.054602 -122.22753906 580.24780273 C-123.2366333 580.79597656 -124.24572754 581.34415039 -125.28540039 581.90893555 C-136.09431083 587.81453494 -146.75926932 593.96351799 -157.39746094 600.17016602 C-159.76978159 601.55379622 -162.14316593 602.93538454 -164.51855469 604.3137207 C-178.72693442 612.55901726 -192.85848409 620.88259606 -206.67114258 629.78198242 C-212.74720289 633.69078988 -218.85002187 637.55777965 -224.96582031 641.40405273 C-237.24005782 649.13887296 -249.29102436 657.15120045 -261.23583984 665.38452148 C-263.73759829 667.10620186 -266.24483826 668.81948144 -268.75488281 670.52905273 C-284.525759 681.27301276 -300.13645614 692.24418952 -315.71582031 703.26342773 C-318.47962235 705.21772344 -321.24809068 707.16512449 -324.02050781 709.10717773 C-332.32277326 714.93016033 -340.53297344 720.86296154 -348.68481445 726.89477539 C-359.88281169 735.17766231 -371.19724267 743.29866049 -382.53662109 751.38647461 C-392.70158815 758.64094724 -402.83475331 765.93835023 -412.86791992 773.37426758 C-422.61257952 780.59529728 -432.49871073 787.5892174 -442.45654297 794.51245117 C-445.49475023 796.63368575 -448.51611842 798.77808268 -451.53686523 800.92407227 C-459.31599532 806.44808456 -467.187424 811.80944564 -475.15185547 817.06225586 C-477.7246033 818.76117059 -480.28832485 820.47354425 -482.85253906 822.18530273 C-483.81675781 822.8259668 -484.78097656 823.46663086 -485.77441406 824.12670898 C-487.98098312 825.60242205 -490.17759977 827.08862027 -492.36816406 828.58764648 C-501.26131394 834.64656055 -510.32483564 840.17925697 -519.85253906 845.18530273 C-520.62275391 845.59280762 -521.39296875 846.0003125 -522.18652344 846.42016602 C-541.12328379 856.30302548 -561.64010497 863.29161105 -582.85253906 866.18530273 C-583.49900391 866.27666504 -584.14546875 866.36802734 -584.81152344 866.4621582 C-602.63912736 868.74555679 -621.31148111 868.05942729 -638.85253906 864.18530273 C-640.71072266 863.78504883 -640.71072266 863.78504883 -642.60644531 863.37670898 C-673.07177908 855.9822105 -699.35609154 840.4828368 -722.35253906 819.46264648 C-724.00373679 817.95850856 -725.67029597 816.47104319 -727.35253906 815.00170898 C-738.19321395 805.4991799 -747.14584843 794.60823558 -755.85253906 783.18530273 C-756.30242187 782.60296875 -756.75230469 782.02063477 -757.21582031 781.4206543 C-798.59282006 727.73191039 -819.4774505 659.64308833 -827.85253906 593.18530273 C-827.97258301 592.25427734 -828.09262695 591.32325195 -828.21630859 590.36401367 C-832.27929776 557.04871355 -831.7521774 521.36421952 -826.85253906 488.18530273 C-826.68093262 486.99855957 -826.50932617 485.81181641 -826.33251953 484.58911133 C-816.58675052 419.06862849 -790.80934833 356.92469556 -747.85253906 306.18530273 C-746.98350051 305.14279136 -746.11504058 304.09979745 -745.24707031 303.05639648 C-736.25926272 292.29276563 -726.8559399 282.0188345 -716.85253906 272.18530273 C-713.86611997 269.20930745 -710.89441268 266.21904345 -707.92675781 263.22436523 C-706.46457576 261.7529539 -705.00233476 260.28160113 -703.54003906 258.81030273 C-702.81880859 258.08069336 -702.09757812 257.35108398 -701.35449219 256.59936523 C-696.68847936 251.91242858 -691.88148128 247.47869527 -686.85253906 243.18530273 C-685.68817356 242.17653779 -684.52409998 241.16743576 -683.36035156 240.15795898 C-676.63106117 234.35883649 -669.83835814 228.6749132 -662.85253906 223.18530273 C-661.84320312 222.37963867 -660.83386719 221.57397461 -659.79394531 220.74389648 C-650.01069108 212.95595867 -639.97151728 205.5298256 -629.85253906 198.18530273 C-629.1794873 197.69481445 -628.50643555 197.20432617 -627.81298828 196.69897461 C-586.29667676 166.53961317 -541.62934852 141.22422247 -495.85253906 118.18530273 C-495.19143127 117.85185852 -494.53032349 117.51841431 -493.84918213 117.17486572 C-412.61194649 76.24301319 -325.7324746 46.39123657 -236.98901367 26.66131592 C-234.88987452 26.19362119 -232.79198921 25.72064763 -230.69433594 25.24633789 C-181.4024143 14.13563176 -131.19355397 6.96762924 -80.85253906 2.81030273 C-79.40933792 2.690858 -79.40933792 2.690858 -77.9369812 2.56900024 C-71.5788892 2.05175151 -65.21830531 1.59683534 -58.85253906 1.18530273 C-58.06051086 1.1319577 -57.26848267 1.07861267 -56.45245361 1.02365112 C-37.66529488 -0.19511069 -18.81739327 -0.00201673 0 0 Z " fill="#0034F3" transform="translate(956.8525390625,578.814697265625)"/>
<path d="M0 0 C2.96439904 1.69001518 5.08235405 4.12711411 7.26391602 6.69311523 C7.73458496 7.22622314 8.20525391 7.75933105 8.69018555 8.30859375 C10.05994812 9.86441691 11.41347136 11.43302398 12.76391602 13.00561523 C14.05500297 14.48528793 15.34657304 15.96453942 16.63891602 17.44311523 C17.17387695 18.0631543 17.70883789 18.68319336 18.26000977 19.32202148 C19.68282116 20.91483112 21.16207498 22.40130421 22.70141602 23.88061523 C24.76391602 26.00561523 24.76391602 26.00561523 24.76391602 28.00561523 C25.75391602 28.33561523 26.74391602 28.66561523 27.76391602 29.00561523 C28.90873933 30.11574694 30.04724731 31.23292252 31.15844727 32.37670898 C63.73624573 65.43009575 110.76909965 83.70238808 155.76391602 91.00561523 C156.44164062 91.11744141 157.11936523 91.22926758 157.81762695 91.34448242 C164.11019551 92.36585684 170.33837856 93.06754435 176.70141602 93.44311523 C183.85993241 93.94760363 189.67011831 95.62882877 194.76391602 101.00561523 C197.84753076 106.64158526 198.01211568 111.43979693 196.79516602 117.64624023 C192.43117421 127.63052451 178.22675168 135.17270898 169.45532227 141.2746582 C164.19907707 144.94684538 159.08424545 148.76895662 154.01391602 152.69311523 C148.18207143 157.20017068 142.27704812 161.49448788 136.18579102 165.64624023 C132.09775042 168.44434157 128.08853824 171.3501672 124.07641602 174.25561523 C123.31393555 174.80733398 122.55145508 175.35905273 121.76586914 175.92749023 C117.93310051 178.70327573 114.1048733 181.48521821 110.27954102 184.27124023 C101.948519 190.32825427 93.54803363 196.25891477 85.02783203 202.04711914 C78.25823188 206.64903127 71.55345415 211.33952477 64.87573242 216.07373047 C59.86027672 219.60913812 54.75720987 222.96533306 49.56665039 226.23803711 C46.7887267 227.98996808 44.02492592 229.76232738 41.26391602 231.54077148 C39.43058268 232.71655273 37.59724935 233.89233398 35.76391602 235.06811523 C34.85641602 235.65399414 33.94891602 236.23987305 33.01391602 236.84350586 C15.61751722 247.97571844 15.61751722 247.97571844 9.88891602 248.06811523 C2.54253817 245.57034677 -0.73370828 241.84147035 -4.23608398 235.00561523 C-24.15668619 188.2338591 -23.33364272 130.06171623 -25.23608398 80.00561523 C-25.26530945 79.24825073 -25.29453491 78.49088623 -25.324646 77.71057129 C-25.71286229 67.55684366 -25.99484662 57.40394136 -26.18994141 47.24475098 C-26.23821636 44.9021387 -26.29600798 42.55988918 -26.35522461 40.2175293 C-26.45462946 36.1912308 -26.5251186 32.16528436 -26.57611084 28.13809204 C-26.5991084 26.61252679 -26.63048437 25.08706075 -26.67095947 23.56185913 C-27.03213412 9.39690518 -27.03213412 9.39690518 -22.68896484 3.44384766 C-16.21706474 -2.96280056 -8.17217012 -3.66556266 0 0 Z " fill="#0034F3" transform="translate(169.236083984375,1382.994384765625)"/>
<path d="M0 0 C11.19027356 9.59631018 19.10499003 23.98615851 20.29345703 38.78515625 C21.2553183 57.29796734 16.90346432 72.87431936 4.59765625 87.15234375 C-7.22573272 99.27458616 -22.27164957 105.50255522 -39 106.0625 C-56.05656159 105.7699051 -70.15463243 99.87728323 -82.625 88.06640625 C-95.7460511 74.19362827 -99.52380971 58.64208929 -99.1875 40.125 C-98.54876101 24.64622518 -90.94744262 11.2176903 -79.875 0.6875 C-56.31255975 -19.75479976 -24.12078482 -18.56708913 0 0 Z " fill="#0034F3" transform="translate(656.875,1401.3125)"/>
</svg>
